<svg xmlns="http://www.w3.org/2000/svg" width="34.87" height="31.383" viewBox="0 0 34.87 31.383">
  <path id="coins" d="M34.863,13.461c-.058-.994-1.24-1.771-3.606-2.364a1.31,1.31,0,0,0,.125-.544V6.487h-.01C31.165,3.1,17.285,3,15.691,3S.218,3.1.01,6.487H0v.076H0v3.992c0,1.1,1.428,1.968,3.548,2.612a1.275,1.275,0,0,0-.052.295H3.487v.076h0v3.985C1.2,18.11.062,18.876.006,19.854H0v.076H0v3.992c0,.769.7,1.421,1.829,1.964a1.292,1.292,0,0,0-.077.361H1.743v.076h0v3.992c0,1.933,4.357,3.133,9.193,3.693a.534.534,0,0,0,.106.021c.011,0,.02-.006.031-.006.932.105,1.879.187,2.817.246a.48.48,0,0,0,.058.012c.011,0,.02-.006.03-.006,1.19.073,2.361.109,3.457.109s2.267-.037,3.457-.109c.01,0,.02.006.03.006s.038-.01.058-.012c.937-.059,1.885-.14,2.817-.246.011,0,.02.006.031.006a.534.534,0,0,0,.106-.022c4.836-.56,9.188-1.761,9.193-3.694V26.246h-.009c-.041-.713-.648-1.307-1.848-1.8a1.3,1.3,0,0,0,.113-.523v-3.8c2.086-.642,3.484-1.5,3.487-2.594V13.461Zm-30.8-1.352V9.3c.543.146,1.126.28,1.743.4V12.54L5.6,12.494c-.309-.068-.611-.139-.9-.214C4.478,12.224,4.269,12.167,4.068,12.109Zm26.019-1.274-.016,0L29.859,11a5.652,5.652,0,0,1-1.383.714V8.946a8.649,8.649,0,0,0,1.743-.8v2.4A.456.456,0,0,1,30.087,10.835ZM14.631,23.912l.479.007v2.9l-.338,0-.151,0q-.4-.007-.794-.019l-.1,0q-.475-.016-.943-.039v-2.9q.873.041,1.753.056Zm2.214,0q.878-.017,1.753-.056v2.9l-.375.017q-.523.022-1.062.035l-.256.005c-.207,0-.42.005-.631.007v-2.9l.479-.007Zm3.3,2.748-.387.029v-2.9c.589-.039,1.172-.085,1.743-.141v2.886c-.359.038-.726.073-1.1.1Zm2.519-3.136q.9-.108,1.743-.245V26.13q-.821.145-1.743.266ZM10.181,26.565,10,26.547l-.125-.013V23.648c.572.055,1.154.1,1.743.141v2.9C11.135,26.65,10.653,26.611,10.181,26.565ZM8.717,23.522V26.4q-.921-.121-1.743-.266V23.277Q7.818,23.414,8.717,23.522Zm16.854,2.384V23.069c.617-.121,1.2-.255,1.743-.4v2.808C26.8,25.625,26.214,25.769,25.571,25.906ZM14.631,10.545l.479.007v2.9c-.782-.008-1.56-.028-2.325-.066v-2.9q.873.041,1.753.056Zm2.214,0q.878-.017,1.753-.056v2.9L18.3,13.4h-.025c-.39.017-.787.03-1.19.04l-.188,0c-.207,0-.418,0-.628.007v-2.9l.479-.007Zm3.487,6.974q.878-.017,1.753-.056v2.9c-.764.038-1.54.059-2.325.067v-2.9l.479-.007Zm-5.6,2.748q-.558-.044-1.09-.1l-.228-.023-.046-.005V17.255c.572.055,1.154.1,1.743.141v2.9l-.144-.009Zm-3.6-.417c-.23-.037-.446-.076-.665-.114v-2.85q.844.137,1.743.245V20c-.356-.047-.7-.1-1.038-.148Zm6.991-2.33.479.007v2.9c-.283,0-.568,0-.844-.01l-.129,0c-.437-.011-.864-.028-1.284-.048l-.067,0v-2.9q.873.041,1.753.056Zm5.851,2.719-.062.005c-.217.018-.441.03-.66.045V17.4c.589-.039,1.172-.085,1.743-.141v2.883C24.652,20.173,24.315,20.209,23.968,20.238ZM9.88,13.164V10.281c.572.055,1.154.1,1.743.141v2.893C11.032,13.273,10.448,13.224,9.88,13.164Zm11.623,0q-.842.089-1.743.154v-2.9c.589-.039,1.172-.085,1.743-.141Zm1.162-3.008q.9-.108,1.743-.245v2.849c-.551.1-1.131.187-1.743.267Zm2.906,2.38V9.7c.617-.121,1.2-.255,1.743-.4v2.8C26.794,12.254,26.207,12.4,25.571,12.535ZM8.717,10.155v2.872c-.115-.015-.235-.027-.349-.043l-.219-.032q-.5-.072-.986-.154l-.19-.034V9.911Q7.818,10.047,8.717,10.155ZM9.3,16.676v2.832q-.963-.207-1.743-.436v-2.8C8.1,16.421,8.681,16.556,9.3,16.676Zm18.543,3.071c-.255.044-.513.088-.777.128-.152.023-.307.045-.463.067s-.3.039-.449.058V17.129q.9-.108,1.743-.245v2.853ZM6.393,15.92v2.761A3.626,3.626,0,0,1,4.7,17.647l-.039-.065a.367.367,0,0,1-.01-.055V15.12A8.648,8.648,0,0,0,6.393,15.92Zm-.581,7.149v2.837q-.8-.17-1.474-.355c-.071-.02-.144-.039-.213-.059l-.056-.016V22.668C4.611,22.814,5.194,22.948,5.812,23.069Zm1.743,6.393V32.3c-.643-.137-1.226-.281-1.743-.431V29.06C6.354,29.207,6.938,29.341,7.555,29.462Zm1.162.208q.844.137,1.743.245V32.79q-.921-.121-1.743-.266Zm2.906.37c.572.055,1.154.1,1.743.141v2.9q-.906-.064-1.743-.153Zm2.906.207q.873.041,1.753.056l.092,0,.479.007v2.905q-1.2-.011-2.325-.067v-2.9Zm3.487.064L18.5,30.3l.092,0q.878-.017,1.753-.056v2.9q-1.119.055-2.325.067Zm3.487-.13c.589-.039,1.172-.085,1.743-.141v2.886q-.838.088-1.743.153Zm2.906-.267q.9-.108,1.743-.245v2.853q-.821.145-1.743.266Zm2.906-.453c.617-.121,1.2-.255,1.743-.4v2.808c-.518.149-1.1.294-1.743.431Zm2.843-5.354-.2.174a5.2,5.2,0,0,1-1.483.8V22.313a8.649,8.649,0,0,0,1.743-.8v2.4A.37.37,0,0,1,30.158,24.108Zm.391-4.954c-.289.081-.6.156-.908.23-.145.034-.292.067-.443.1l-.138.028V16.677c.617-.121,1.2-.255,1.743-.4v2.808Zm-29.386-8.6V8.146a8.649,8.649,0,0,0,1.743.8v2.783C1.775,11.3,1.163,10.88,1.162,10.553Zm0,13.367V21.513a8.649,8.649,0,0,0,1.743.8v2.772l-.332-.129-.007.007C1.655,24.584,1.163,24.212,1.162,23.919Zm1.743,6.393V27.906a8.649,8.649,0,0,0,1.743.8v2.783C3.519,31.064,2.907,30.639,2.906,30.312ZM30.22,31.488V28.706a8.649,8.649,0,0,0,1.743-.8v2.4C31.963,30.638,31.351,31.064,30.22,31.488ZM31.964,18.7V15.92a8.649,8.649,0,0,0,1.743-.8v2.4C33.707,17.853,33.094,18.278,31.964,18.7Z" transform="translate(0 -3)" fill="#7b2292"/>
</svg>
