<svg xmlns="http://www.w3.org/2000/svg" width="252.58" height="280.684" viewBox="0 0 252.58 280.684">
  <path id="Tracé_1315" data-name="Tracé 1315" d="M23.291,288.764c.791,2.4,3.56,9.192,6.329,4a1018.945,1018.945,0,0,1,85.049-131.49c47.469,32.773,94.147,66.345,126.189,116.3,3.165,4.8,5.538-2.4,6.329-4.8,1.187-5.6.791-12.789-1.978-17.985-26.5-49.958-70.017-82.331-116.3-111.907a1001.862,1001.862,0,0,1,89.4-98.718c4.351-4,3.956-12.789,3.165-18.385-.4-1.6-2.769-13.988-6.725-9.992a1061.292,1061.292,0,0,0-102.059,117.1C82.628,114.11,24.455,74.344-2.84,53.162-6,50.764.876,66.929,4.041,70.126c23.735,21.582,69.093,62.368,95.6,80.753a1087.027,1087.027,0,0,0-75.16,121.5C22.1,276.774,21.709,283.968,23.291,288.764Z" transform="translate(4.149 -14.487)" fill="#ee8100" stroke="#8e5a1b" stroke-width="1"/>
</svg>
