<svg xmlns="http://www.w3.org/2000/svg" width="82.503" height="78.464" viewBox="0 0 82.503 78.464">
  <g id="Groupe_2650" data-name="Groupe 2650" transform="translate(-38.447 -162.918)">
    <g id="winner" transform="translate(15.012 139.463)">
      <path id="Tracé_842" data-name="Tracé 842" d="M103.385,77.476l9.74,29.973h31.509L119.14,125.971l9.74,29.969-25.495-18.523L77.891,155.939l9.74-29.969-25.5-18.523H93.645Z" transform="translate(-38.697 -54.02)" fill="#945bbf"/>
      <g id="Groupe_142" data-name="Groupe 142" transform="translate(23.435 23.455)">
        <path id="Tracé_843" data-name="Tracé 843" d="M171.505,77.476v42.778l9.74-12.806Z" transform="translate(-130.252 -77.476)" fill="#ef7400"/>
        <path id="Tracé_844" data-name="Tracé 844" d="M171.505,169.746l41.25-12.806L187.26,175.463Z" transform="translate(-130.252 -126.968)" fill="#ef7400"/>
        <path id="Tracé_845" data-name="Tracé 845" d="M171.505,190.892,197,226.577l-25.495-18.523Z" transform="translate(-130.252 -148.113)" fill="#ef7400"/>
        <path id="Tracé_846" data-name="Tracé 846" d="M129.407,190.892l-15.755,5.717-9.74,29.969Z" transform="translate(-88.154 -148.113)" fill="#ef7400"/>
        <path id="Tracé_847" data-name="Tracé 847" d="M62.132,156.94H93.645l9.74,12.806Z" transform="translate(-62.132 -126.968)" fill="#ef7400"/>
      </g>
    </g>
  </g>
</svg>
