<svg id="XMLID_806_" xmlns="http://www.w3.org/2000/svg" width="48.59" height="46.522" viewBox="0 0 48.59 46.522">
  <g id="XMLID_386_">
    <path id="XMLID_389_" d="M48.5,35.762A19.125,19.125,0,0,0,33.6,19.009V16.6a3.217,3.217,0,0,0-.779-6.341H25.989A3.217,3.217,0,0,0,25.21,16.6v2.412a19.163,19.163,0,0,0-10.957,6.952c-.024,0-.048,0-.072,0H7.418a.947.947,0,1,0,0,1.893h5.543a18.953,18.953,0,0,0-1.684,3.638H.949a.947.947,0,1,0,0,1.893h9.792a19.2,19.2,0,0,0-.471,3.638h-4.2a.947.947,0,1,0,0,1.893H10.3a19.173,19.173,0,0,0,.593,3.638H4.745a.947.947,0,1,0,0,1.893H11.5a19,19,0,0,0,4.365,6.733,19.226,19.226,0,0,0,11.661,5.507q.94.093,1.881.092A19.252,19.252,0,0,0,39.868,53.7a.947.947,0,1,0-1.036-1.586,17.207,17.207,0,1,1,5.087-5.081.948.948,0,0,0,1.592,1.031A19.143,19.143,0,0,0,48.5,35.762ZM24.661,13.48a1.328,1.328,0,0,1,1.329-1.325h6.833a1.325,1.325,0,1,1,0,2.65H25.989A1.328,1.328,0,0,1,24.661,13.48Zm2.448,5.209V16.7H31.7v1.988A19.386,19.386,0,0,0,27.108,18.69Z" transform="translate(0 -10.262)" fill="#945bbf"/>
    <path id="XMLID_391_" d="M436.719,425.5a.949.949,0,1,0,.67.278A.953.953,0,0,0,436.719,425.5Z" transform="translate(-394.41 -386.209)" fill="#945bbf"/>
    <path id="XMLID_394_" d="M169.586,144.609A14.714,14.714,0,1,0,184.3,159.323,14.731,14.731,0,0,0,169.586,144.609Zm0,27.532A12.817,12.817,0,1,1,182.4,159.323,12.832,12.832,0,0,1,169.586,172.141Z" transform="translate(-140.156 -131.961)" fill="#ee8100"/>
    <path id="XMLID_397_" d="M268.06,219.689l-4.7,4.7a2.94,2.94,0,0,0-2.6,0l-2.1-2.1a.949.949,0,0,0-1.341,1.341l2.1,2.1a2.947,2.947,0,1,0,5.287,0l4.56-4.56h0l.138-.138a.949.949,0,0,0-1.341-1.341Zm-6,8.392a1.05,1.05,0,1,1,1.05-1.05A1.052,1.052,0,0,1,262.06,228.081Z" transform="translate(-232.638 -199.625)" fill="#ee8100"/>
    <path id="XMLID_398_" d="M399.482,289.86H398.6a.949.949,0,1,0,0,1.9h.879a.949.949,0,0,0,0-1.9Z" transform="translate(-359.915 -263.396)" fill="#945bbf"/>
    <path id="XMLID_399_" d="M194.909,289.616h-.879a.949.949,0,1,0,0,1.9h.879a.949.949,0,1,0,0-1.9Z" transform="translate(-174.757 -263.175)" fill="#945bbf"/>
    <path id="XMLID_400_" d="M301.071,185.595a.949.949,0,0,0,.949-.949v-.879a.949.949,0,1,0-1.9,0v.879A.949.949,0,0,0,301.071,185.595Z" transform="translate(-271.64 -166.487)" fill="#945bbf"/>
    <path id="XMLID_424_" d="M300.828,387.393a.949.949,0,0,0-.948.949v.879a.949.949,0,0,0,1.9,0v-.879A.949.949,0,0,0,300.828,387.393Z" transform="translate(-271.419 -351.699)" fill="#945bbf"/>
    <path id="XMLID_425_" d="M.949,351.44a.949.949,0,1,0,.671,1.619.949.949,0,0,0-.671-1.619Z" transform="translate(0 -319.147)" fill="#945bbf"/>
  </g>
</svg>
